<mxfile host="app.diagrams.net" modified="2023-09-02T10:24:01.563Z" agent="Mozilla/5.0 (Macintosh; Intel Mac OS X 10.15; rv:109.0) Gecko/20100101 Firefox/116.0" version="21.6.9" etag="l8ECT_-3F7f_9hmiO1EZ" type="github">
  <diagram name="第 1 页" id="CbVHG_sF6pk0jGWwifxH">
    <mxGraphModel>
      <root>
        <mxCell id="0" />
        <mxCell id="1" parent="0" />
      </root>
    </mxGraphModel>
  </diagram>
</mxfile>
